<?xml version="1.0" standalone="no"?>
<!DOCTYPE svg PUBLIC "-//W3C//DTD SVG 20010904//EN"
 "http://www.w3.org/TR/2001/REC-SVG-20010904/DTD/svg10.dtd">
<svg version="1.0" xmlns="http://www.w3.org/2000/svg"
 width="1024.000000pt" height="1024.000000pt" viewBox="0 0 1024.000000 1024.000000"
 preserveAspectRatio="xMidYMid meet">

<g transform="translate(0.000000,1024.000000) scale(0.100000,-0.100000)"
fill="#0274b3" stroke="none">
<path d="M690 10203 c-280 -32 -527 -225 -616 -482 -13 -38 -29 -105 -34 -148
-7 -52 -10 -1527 -8 -4503 3 -4217 4 -4428 21 -4485 23 -77 67 -172 107 -230
113 -165 312 -286 514 -314 104 -15 8790 -15 8890 -1 299 44 535 250 623 545
17 57 18 268 21 4485 2 2976 -1 4451 -8 4503 -12 94 -47 199 -92 275 -43 73
-177 208 -252 251 -78 46 -197 87 -290 100 -54 8 -1391 11 -4459 9 -2410 0
-4398 -3 -4417 -5z m1778 -1409 c277 -57 509 -242 628 -500 98 -210 104 -466
17 -682 -79 -199 -224 -359 -413 -456 -261 -135 -548 -135 -811 0 -399 206
-575 689 -404 1111 86 214 283 407 496 487 149 56 336 71 487 40z m4732 -2295
c404 -39 738 -178 971 -404 293 -284 441 -650 516 -1285 15 -130 17 -307 20
-1708 l4 -1562 -761 0 -760 0 0 1348 c0 880 -4 1386 -11 1458 -46 478 -211
728 -538 816 -93 25 -324 30 -441 9 -372 -66 -588 -312 -664 -759 -32 -182
-36 -362 -36 -1614 l0 -1258 -755 0 -755 0 2 2428 3 2427 720 0 720 0 3 -332
c2 -287 4 -333 17 -333 8 0 15 4 15 9 0 5 27 49 59 98 218 324 588 561 1006
643 189 37 410 43 665 19z m-4152 -2531 l2 -2428 -755 0 -755 0 0 2430 0 2430
753 -2 752 -3 3 -2427z"/>
</g>
</svg>
