<?xml version="1.0" encoding="UTF-8"?>
<svg id="Logo" xmlns="http://www.w3.org/2000/svg" viewBox="0 0 1000 1000">
  <defs>
    <style>
      .cls-1 {
        fill: none;
        stroke: #1d1d1b;
        stroke-miterlimit: 10;
        stroke-width: 33px;
      }

      .cls-2 {
        fill: #f3930d;
      }

      .cls-3 {
        fill: #007dc5;
      }

      .cls-4 {
        fill: #1d1d1b;
      }
    </style>
  </defs>
  <polygon class="cls-1" points="963.93 766.64 963.93 368 354 120.83 36.07 266.92 36.07 608.29 590.53 879.17 963.93 766.64"/>
  <path class="cls-4" d="M323.05,354.7c0,16.21-4.35,30.18-13.04,41.92-8.7,11.75-21.15,20.59-37.35,26.54,19.32,5.94,34.23,15.31,44.71,28.09,10.48,12.79,15.72,28.03,15.72,45.72,0,12.79-2.64,24.45-7.92,35.01-5.28,10.55-12.86,19.62-22.75,27.2-9.89,7.59-21.96,13.46-36.23,17.62-14.27,4.16-30.33,6.24-48.17,6.24-8.18,0-16.51-.49-24.97-1.45-8.48-.97-16.65-2.34-24.53-4.12-7.88-1.78-15.27-3.98-22.18-6.58-6.91-2.6-12.9-5.54-17.95-8.81l13.6-27.2c10.26,4.46,21.07,8.18,32.45,11.15,11.37,2.98,24.41,4.46,39.14,4.46,11.3,0,21.74-1.12,31.33-3.34,9.59-2.23,17.84-5.61,24.75-10.15,6.91-4.53,12.3-10.18,16.17-16.95,3.86-6.76,5.79-14.75,5.79-23.97,0-9.81-1.86-18.25-5.57-25.31-3.72-7.06-8.88-12.89-15.5-17.5-6.61-4.61-14.46-7.99-23.53-10.15-9.07-2.15-18.88-3.23-29.43-3.23h-40.58v-32.56h40.58c9.07,0,17.51-1.04,25.31-3.12,7.81-2.08,14.57-5.28,20.29-9.59,5.72-4.31,10.22-9.78,13.49-16.39,3.27-6.61,4.91-14.46,4.91-23.53s-1.75-16.87-5.24-23.41c-3.49-6.54-8.33-11.86-14.49-15.94-6.17-4.09-13.46-7.1-21.85-9.03-8.4-1.93-17.5-2.9-27.32-2.9-6.84,0-13.2,.41-19.07,1.23-5.88,.82-11.45,1.89-16.73,3.23s-10.37,2.98-15.27,4.91c-4.91,1.93-9.81,4.01-14.72,6.24l-14.49-26.31c4.76-3.27,10.44-6.24,17.06-8.92,6.61-2.68,13.75-4.98,21.41-6.91,7.65-1.93,15.53-3.42,23.64-4.46,8.1-1.04,15.94-1.56,23.53-1.56,16.2,0,30.8,1.97,43.82,5.91,13,3.94,24.04,9.56,33.11,16.84,9.07,7.29,16.02,16.1,20.85,26.42,4.83,10.34,7.25,21.89,7.25,34.68Z"/>
  <path class="cls-2" d="M604.68,440.06c-12.16-4.88-25.28-8.09-39.38-9.63-.14,12.03-1.22,23.06-3.21,33.05,7.28,1.18,14.24,2.89,20.85,5.25,6.96,2.44,13.43,5.61,19.31,9.5,3.35-11.44,5.43-23.6,6.33-36.49-1.27-.59-2.58-1.13-3.89-1.67Z"/>
  <path class="cls-2" d="M609.11,426.49c0,5.2-.18,10.26-.54,15.24-1.27-.59-2.58-1.13-3.89-1.67-12.16-4.88-25.28-8.09-39.38-9.63,.09-1.31,.09-2.62,.09-3.93,0-20.66-2.58-38.48-7.69-53.49-5.11-15.01-12.39-27.31-21.75-36.9-9.36-9.59-20.57-16.73-33.69-21.3-13.07-4.61-27.49-6.92-43.23-6.92h-45.04v238.15h45.04c12.75,0,24.6-1.54,35.59-4.66,2.62-.68,5.15-1.49,7.64-2.4,13.11-4.66,24.33-11.89,33.69-21.61,9.36-9.72,16.64-22.11,21.75-37.12,1.76-5.24,3.26-10.85,4.39-16.78,7.28,1.18,14.24,2.89,20.85,5.25,6.96,2.44,13.43,5.61,19.31,9.5-1,3.62-2.13,7.14-3.39,10.63-6.83,18.63-16.55,34.64-29.12,47.93-12.57,13.29-27.81,23.6-45.71,30.88-9.22,3.75-19.04,6.56-29.39,8.32-9.72,1.76-19.99,2.62-30.7,2.62h-93.64V275.33h93.64c22.16,0,42.19,3.57,60.09,10.81,17.91,7.19,33.14,17.41,45.71,30.57,12.57,13.11,22.29,28.98,29.12,47.57,6.83,18.58,10.26,39.34,10.26,62.22Z"/>
  <path class="cls-3" d="M679.47,518.23c-6.83-18.58-16.5-34.46-29.07-47.61-11.67-12.21-25.59-21.84-41.83-28.89-1.27-.59-2.58-1.13-3.89-1.67-12.16-4.88-25.28-8.09-39.38-9.63-6.69-.81-13.56-1.18-20.71-1.18h-93.64v116.79h8.09c12.75,0,24.6-1.54,35.59-4.66v-79.58h45.04c7.82,0,15.28,.54,22.43,1.67,7.28,1.18,14.24,2.89,20.85,5.25,6.96,2.44,13.43,5.61,19.31,9.5,5.2,3.39,9.99,7.33,14.38,11.8,9.36,9.59,16.59,21.88,21.75,36.9,5.11,15.01,7.69,32.83,7.69,53.49s-2.58,38.75-7.69,53.76c-5.16,15.01-12.39,27.4-21.75,37.12-9.36,9.72-20.62,16.96-33.69,21.61-13.07,4.7-27.49,7.05-43.27,7.05h-45.04v-123.98c-9.72,1.76-19.99,2.62-30.7,2.62h-12.98v153.92h93.64c22.16,0,42.19-3.66,60.09-10.94,17.91-7.28,33.14-17.59,45.71-30.88,12.57-13.29,22.25-29.3,29.07-47.93,6.87-18.67,10.26-39.43,10.26-62.35s-3.39-43.63-10.26-62.17Z"/>
  <path class="cls-4" d="M814.55,461.8v270.71h-43.71V461.8h-94.77v-32.56h233.69v32.56h-95.22Z"/>
</svg>