<?xml version="1.0" standalone="no"?>
<!DOCTYPE svg PUBLIC "-//W3C//DTD SVG 20010904//EN"
 "http://www.w3.org/TR/2001/REC-SVG-20010904/DTD/svg10.dtd">
<svg version="1.0" xmlns="http://www.w3.org/2000/svg"
 width="179.000000pt" height="191.000000pt" viewBox="0 0 179.000000 191.000000"
 preserveAspectRatio="xMidYMid meet">

<g transform="translate(0.000000,191.000000) scale(0.100000,-0.100000)"
fill="#ffffff" stroke="none">
<path d="M537 1834 c-4 -4 -7 -22 -7 -41 l0 -33 -218 0 c-171 0 -222 -3 -237
-14 -16 -12 -17 -16 -6 -30 11 -13 47 -16 235 -18 l221 -3 3 -47 3 -48 -216 0
c-230 0 -263 -6 -245 -40 10 -19 23 -20 235 -20 l225 0 0 -43 c0 -49 6 -58 75
-112 72 -55 75 -61 75 -134 0 -36 4 -71 8 -78 4 -6 28 -13 52 -15 l45 -3 5
-65 c5 -63 6 -65 35 -70 29 -5 30 -7 33 -68 3 -58 4 -62 27 -62 23 0 24 4 27
63 3 60 4 62 31 65 34 4 46 31 44 93 l-2 44 50 5 50 5 3 83 3 82 74 56 c41 31
76 64 76 73 1 9 2 30 3 46 l1 30 221 3 c188 2 224 5 235 18 11 14 10 18 -6 30
-15 11 -66 14 -232 14 l-213 0 0 50 0 50 219 0 c182 0 221 3 231 15 10 12 10
18 0 30 -10 12 -49 15 -230 15 l-218 0 -6 34 c-7 34 -20 47 -43 39 -10 -4 -13
-47 -13 -169 0 -92 -4 -174 -10 -184 -6 -11 -36 -37 -67 -60 l-56 -40 -161 0
c-148 0 -165 2 -211 24 -27 13 -61 36 -75 50 -24 27 -25 33 -30 204 -4 149 -7
177 -20 180 -9 1 -19 0 -23 -4z m493 -564 l0 -50 -145 0 -145 0 0 50 0 50 145
0 145 0 0 -50z m-109 -122 c6 -63 6 -63 -38 -66 -43 -3 -43 -3 -43 31 0 18 3
37 7 40 12 12 73 8 74 -5z"/>
<path d="M867 844 c-4 -4 -7 -32 -7 -63 0 -31 -4 -61 -8 -68 -5 -8 -100 -12
-344 -15 -314 -3 -337 -4 -357 -22 -48 -44 -51 -177 -5 -223 l23 -23 278 2
c270 3 278 4 278 23 0 19 -8 20 -268 25 -299 6 -287 2 -287 78 0 87 -23 82
356 82 l335 0 25 25 c23 23 25 31 22 102 -2 61 -6 78 -18 81 -9 1 -19 0 -23
-4z"/>
<path d="M790 465 c-10 -12 -10 -18 0 -30 9 -11 34 -15 96 -15 l84 0 0 -60 0
-60 -78 0 c-84 0 -120 -14 -109 -44 5 -13 22 -16 97 -16 l90 0 0 -65 0 -65
-89 0 c-72 0 -90 -3 -95 -16 -11 -29 4 -34 109 -34 81 0 107 3 119 16 13 13
16 45 16 190 0 219 3 214 -134 214 -71 0 -97 -4 -106 -15z"/>
<path d="M1142 472 c-9 -7 -12 -55 -10 -208 l3 -199 75 -3 c65 -2 81 0 110 20
54 36 70 78 70 183 -1 118 -21 167 -82 195 -44 20 -142 27 -166 12z m159 -81
c28 -28 29 -33 29 -121 0 -50 -5 -100 -10 -111 -14 -25 -62 -49 -100 -49 l-30
0 0 155 0 155 41 0 c31 0 47 -6 70 -29z"/>
</g>
</svg>
